<svg width="46" height="80" viewBox="0 0 46 80" fill="none" xmlns="http://www.w3.org/2000/svg">
<path d="M3.80367 50.3124L4.68423 49.4319V48.2997C4.20901 47.503 3.73379 46.6224 3.24458 45.6161C3.14674 45.7838 3.03493 45.9655 2.93709 46.1472V49.0125H2.05653V47.8105C1.7071 48.5373 1.37165 49.348 1.07812 50.2146L1.18994 50.3264H3.80367V50.3124Z" fill="#6246EA"/>
<path d="M5.98408 50.3125H6.02601C5.71851 49.9211 5.41101 49.4739 5.10352 48.9987V49.4319L5.98408 50.3125Z" fill="#6246EA"/>
<path d="M21.1072 49.6415C20.8417 49.8651 20.5761 50.0887 20.3105 50.3124H20.4363L21.1072 49.6415Z" fill="#6246EA"/>
<path d="M23.4971 50.3125V47.7826C22.8961 48.2019 22.3091 48.6632 21.75 49.1104V50.3125H23.4971Z" fill="#6246EA"/>
<path d="M25.6925 50.3125V46.4408C25.0914 46.7483 24.5044 47.0977 23.9453 47.4751V50.3125H25.6925Z" fill="#6246EA"/>
<path d="M27.0053 50.3122H29.633L30.5135 49.4317V45.4901L30.1222 45.0988C28.6685 45.2385 27.3547 45.6578 26.1387 46.2169V49.4317L27.0053 50.3122ZM27.8718 45.9374H28.7524V48.9984H27.8718V45.9374Z" fill="#6246EA"/>
<path d="M32.6944 50.3123V45.1268C32.1213 45.0569 31.5343 45.0289 30.9473 45.0429V50.2983H32.6944V50.3123Z" fill="#6246EA"/>
<path d="M33.127 49.446L34.0075 50.3265H36.6352L37.5158 49.446V46.6365C36.2299 46.0076 34.8601 45.5044 33.3925 45.2528L33.127 45.5184V49.446ZM34.8881 45.9377H35.7686V48.9987H34.8881V45.9377Z" fill="#6246EA"/>
<path d="M39.6964 50.3124V47.8804C39.1373 47.517 38.5502 47.1675 37.9492 46.8461V50.3124H39.6964Z" fill="#6246EA"/>
<path d="M41.0092 50.3126H42.8541C42.0574 49.5997 41.1489 48.8729 40.1426 48.1741V49.432L41.0092 50.3126Z" fill="#6246EA"/>
<path d="M2.04207 57.7904V52.1017H0.518556C0.434694 52.4511 0.364808 52.8145 0.294922 53.1779V57.7904H2.04207Z" fill="#6246EA"/>
<path d="M5.98288 57.7902L6.86344 56.9096V52.9681L5.98288 52.0875H3.35517L2.47461 52.9681V56.9096L3.35517 57.7902H5.98288ZM4.23573 53.4154H5.11629V56.4764H4.23573V53.4154Z" fill="#6246EA"/>
<path d="M7.29688 56.9096L8.17744 57.7902H10.8051L11.6857 56.9096V54.2819C11.1546 54.1981 10.5675 54.0164 9.93856 53.7229V56.4764H9.058V53.4154H9.33754C8.87629 53.1498 8.40107 52.8004 7.91187 52.3671L7.31085 52.9681V56.9096H7.29688Z" fill="#6246EA"/>
<path d="M13.8663 57.7902V54.254C13.3072 54.3658 12.7202 54.3938 12.1191 54.3379V57.7763H13.8663V57.7902Z" fill="#6246EA"/>
<path d="M15.1791 57.7901H17.8068L18.6873 56.9095V52.968L17.9466 52.2272C17.3455 52.6744 16.7445 53.0798 16.1435 53.4013H16.9402V56.4623H16.0596V53.4432C15.4866 53.7507 14.9135 53.9883 14.3125 54.142V56.9095L15.1791 57.7901Z" fill="#6246EA"/>
<path d="M22.6294 57.7902L23.5099 56.9096V52.9681L22.6294 52.0875H20.0017L19.1211 52.9681V56.9096L20.0017 57.7902H22.6294ZM20.8682 53.4154H21.7488V56.4764H20.8682V53.4154Z" fill="#6246EA"/>
<path d="M25.6768 52.1017H23.9297V57.7904H25.6768V52.1017Z" fill="#6246EA"/>
<path d="M29.6333 57.7902L30.5138 56.9096V52.9681L29.6333 52.0875H27.0056L26.125 52.9681V56.9096L27.0056 57.7902H29.6333ZM27.8721 53.4154H28.7527V56.4764H27.8721V53.4154Z" fill="#6246EA"/>
<path d="M32.6944 52.1017H30.9473V57.7904H32.6944V52.1017Z" fill="#6246EA"/>
<path d="M36.6352 57.7902L37.5158 56.9096V52.9681L36.6352 52.0875H34.0075L33.127 52.9681V56.9096L34.0075 57.7902H36.6352ZM34.8881 53.4154H35.7686V56.4764H34.8881V53.4154Z" fill="#6246EA"/>
<path d="M41.4419 57.7902L42.3224 56.9096V52.9681L41.4419 52.0875H38.8142L37.9336 52.9681V56.9096L38.8142 57.7902H41.4419ZM39.6947 53.4154H40.5753V56.4764H39.6947V53.4154Z" fill="#6246EA"/>
<path d="M42.7578 57.7904H44.3792C44.3792 55.5261 44.0158 53.5553 43.6384 52.1017H42.7578V57.7904Z" fill="#6246EA"/>
<path d="M4.66959 64.3875V60.446L3.78903 59.5654H1.1753L0.392578 60.3481C0.714053 62.0114 1.24518 63.6607 1.95802 65.2681H3.78903L4.66959 64.3875ZM2.92244 63.9403H2.04188V60.8793H2.92244V63.9403Z" fill="#6246EA"/>
<path d="M5.11719 60.4459V64.3874L5.99775 65.268H8.62545L9.50602 64.3874V60.4459L8.62545 59.5653H5.98377L5.11719 60.4459ZM6.86433 60.8792H7.74489V63.9402H6.86433V60.8792Z" fill="#6246EA"/>
<path d="M11.6729 59.5653H9.92578V65.254H11.6729V59.5653Z" fill="#6246EA"/>
<path d="M15.6137 65.2538L16.4943 64.3733V60.4317L15.6137 59.5511H12.986L12.1055 60.4317V64.3733L12.986 65.2538H15.6137ZM13.8666 60.879H14.7472V63.94H13.8666V60.879Z" fill="#6246EA"/>
<path d="M20.436 65.2538L21.3166 64.3733V60.4317L20.436 59.5511H17.8083L16.9277 60.4317V64.3733L17.8083 65.2538H20.436ZM18.6889 60.879H19.5694V63.94H18.6889V60.879Z" fill="#6246EA"/>
<path d="M23.4971 59.5653H21.75V65.254H23.4971V59.5653Z" fill="#6246EA"/>
<path d="M25.6768 59.5653H23.9297V65.254H25.6768V59.5653Z" fill="#6246EA"/>
<path d="M29.6333 65.2538L30.5138 64.3733V60.4317L29.6333 59.5511H27.0056L26.125 60.4317V64.3733L27.0056 65.2538H29.6333ZM27.8721 60.879H28.7527V63.94H27.8721V60.879Z" fill="#6246EA"/>
<path d="M32.6944 59.5653H30.9473V65.254H32.6944V59.5653Z" fill="#6246EA"/>
<path d="M36.6352 65.2538L37.5158 64.3733V60.4317L36.6352 59.5511H34.0075L33.127 60.4317V64.3733L34.0075 65.2538H36.6352ZM34.8881 60.879H35.7686V63.94H34.8881V60.879Z" fill="#6246EA"/>
<path d="M39.6964 59.5654H37.9492V65.2541H39.6964V59.5654Z" fill="#6246EA"/>
<path d="M41.0095 59.5653L40.1289 60.4459V64.3874L41.0095 65.268H43.0082C43.148 64.9046 43.2738 64.5412 43.3996 64.1778C43.8468 62.808 44.1124 61.4662 44.2522 60.1943L43.6372 59.5793H41.0095V59.5653ZM42.7566 63.9402H41.8761V60.8792H42.7566V63.9402Z" fill="#6246EA"/>
<path d="M6.86325 67.9097L5.98269 67.0292H3.35498L3.01953 67.3646C3.39691 68.0355 3.80225 68.6785 4.23554 69.3214V68.343H5.11611V70.5095C5.56337 71.0825 6.0386 71.6416 6.5278 72.1728L6.86325 71.8373V67.9097Z" fill="#6246EA"/>
<path d="M8.17744 67.0431L7.29688 67.9237V71.8652L8.17744 72.7458H10.8051L11.6857 71.8652V67.9237L10.8051 67.0431H8.17744ZM9.92458 71.4179H9.04402V68.3569H9.92458V71.4179Z" fill="#6246EA"/>
<path d="M13.8663 67.0431H12.1191V72.7318H13.8663V67.0431Z" fill="#6246EA"/>
<path d="M15.1813 67.0431L14.3008 67.9237V71.8652L15.1813 72.7458H17.809L18.6896 71.8652V67.9237L17.809 67.0431H15.1813ZM16.9285 71.4179H16.0479V68.3569H16.9285V71.4179Z" fill="#6246EA"/>
<path d="M20.0017 67.0431L19.1211 67.9237V71.8652L20.0017 72.7458H22.6294L23.5099 71.8652V67.9237L22.6294 67.0431H20.0017ZM21.7488 71.4179H20.8682V68.3569H21.7488V71.4179Z" fill="#6246EA"/>
<path d="M25.6768 67.0431H23.9297V72.7318H25.6768V67.0431Z" fill="#6246EA"/>
<path d="M29.6333 72.7319L30.5138 71.8513V67.9097L29.6333 67.0292H27.0056L26.125 67.9097V71.8513L27.0056 72.7319H29.6333ZM27.8721 68.357H28.7527V71.418H27.8721V68.357Z" fill="#6246EA"/>
<path d="M32.6944 67.0431H30.9473V72.7318H32.6944V67.0431Z" fill="#6246EA"/>
<path d="M36.6352 72.7319L37.5158 71.8513V67.9097L36.6352 67.0292H34.0075L33.127 67.9097V71.8513L34.0075 72.7319H36.6352ZM34.8881 68.357H35.7686V71.418H34.8881V68.357Z" fill="#6246EA"/>
<path d="M38.8298 67.0431L37.9492 67.9237V71.8653L38.4664 72.3824C38.8997 71.9352 39.305 71.4599 39.6964 70.9707V68.357H40.5769V69.7967C41.0801 69.0698 41.5553 68.329 41.9607 67.5463L41.4435 67.0292H38.8298V67.0431Z" fill="#6246EA"/>
<path d="M9.92578 74.507V75.2338C10.4849 75.6531 11.0719 76.0445 11.6729 76.3939V74.493H9.92578V74.507Z" fill="#6246EA"/>
<path d="M15.6137 74.507H12.986L12.1055 75.3875V76.6594C12.6785 76.9809 13.2516 77.2884 13.8526 77.554V75.8208H14.7332V77.9314C15.3062 78.155 15.8933 78.3646 16.4803 78.5464V75.3875L15.6137 74.507Z" fill="#6246EA"/>
<path d="M21.3166 75.3875L20.436 74.507H17.8083L16.9277 75.3875V78.6861C18.3115 79.0635 19.7511 79.3151 21.2467 79.399L21.3026 79.3431V75.3875H21.3166ZM19.5554 78.8958H18.6749V75.8348H19.5554V78.8958Z" fill="#6246EA"/>
<path d="M21.75 74.507V79.4129C21.8478 79.4129 21.9457 79.4269 22.0435 79.4269C22.5327 79.4409 23.0219 79.4269 23.4971 79.399V74.5209H21.75V74.507Z" fill="#6246EA"/>
<path d="M23.9297 74.507V79.3571C24.5167 79.3152 25.1038 79.2453 25.6768 79.1474V74.493H23.9297V74.507Z" fill="#6246EA"/>
<path d="M29.6333 74.507H27.0056L26.125 75.3875V79.0915C26.712 78.9796 27.2991 78.8539 27.8721 78.7001V75.8348H28.7527V78.4345C29.3397 78.2528 29.9268 78.0432 30.4999 77.8056V75.3875L29.6333 74.507Z" fill="#6246EA"/>
<path d="M30.9473 74.507V77.6239C31.5483 77.3723 32.1213 77.0787 32.6944 76.7713V74.507H30.9473Z" fill="#6246EA"/>
<path d="M33.127 75.3875V76.5336C34.1752 75.9326 35.1816 75.2617 36.1181 74.507H34.0075L33.127 75.3875Z" fill="#6246EA"/>
<path d="M32.5257 0.567749V17.0049H13.5307V0.567749H8.45703V39.1866C9.99452 37.9147 11.6997 36.8525 13.5307 36.0138V22.7914H12.3986C12.0072 22.7914 11.6858 22.47 11.6858 22.0786V21.9388C11.6858 21.5475 12.0072 21.226 12.3986 21.226H33.7138C34.1051 21.226 34.4266 21.5475 34.4266 21.9388V22.0786C34.4266 22.47 34.1051 22.7914 33.7138 22.7914H32.5257V35.9859C34.3847 36.8245 36.1039 37.9007 37.6553 39.1866V0.567749H32.5257Z" fill="white"/>
</svg>
