<svg width="681" height="403" viewBox="0 0 681 403" fill="none" xmlns="http://www.w3.org/2000/svg">
<path d="M259.261 2.97998V202.423H233.506V2.97998H259.261Z" fill="white"/>
<path d="M304.244 5.67618C315.454 3.3348 333.263 1.56104 351.285 1.56104C377.04 1.56104 393.571 6.03094 405.988 16.035C416.347 23.6977 422.59 35.5465 422.59 51.2267C422.59 70.4544 409.89 87.3407 388.889 95.0034V95.5711C407.833 100.325 430.04 116.005 430.04 145.591C430.04 162.762 423.229 175.746 413.154 185.537C399.247 198.237 376.756 204.197 344.19 204.197C326.452 204.197 312.829 202.991 304.244 201.856V5.67618ZM329.928 87.3407H353.271C380.516 87.3407 396.48 73.1505 396.48 53.9228C396.48 30.58 378.743 21.3563 352.704 21.3563C340.855 21.3563 334.044 22.2787 329.928 23.1301V87.3407ZM329.928 182.912C334.966 183.834 342.345 184.118 351.498 184.118C378.104 184.118 402.653 174.327 402.653 145.379C402.653 118.133 379.31 106.923 351.143 106.923H329.857V182.912H329.928Z" fill="white"/>
<path d="M490.277 2.97998V202.423H464.521V2.97998H490.277Z" fill="white"/>
<path d="M233.506 200.862H259.261V378.665H344.473V400.235H233.506V200.862Z" fill="#6246EA"/>
<path d="M405.42 337.514L384.702 400.235H358.096L425.783 200.862H456.859L524.901 400.235H497.372L476.087 337.514H405.42ZM470.766 317.435L451.254 260.035C446.784 247.051 443.875 235.203 440.895 223.638H440.328C437.348 235.486 434.084 247.619 430.253 259.752L410.741 317.435H470.766Z" fill="#6246EA"/>
<path d="M554.205 203.487C565.415 201.146 583.224 199.372 601.246 199.372C627.001 199.372 643.532 203.842 655.949 213.846C666.308 221.509 672.551 233.358 672.551 249.038C672.551 268.266 659.851 285.152 638.85 292.815V293.382C657.794 298.136 680.001 313.816 680.001 343.403C680.001 360.573 673.19 373.557 663.115 383.348C649.208 396.048 626.717 402.008 594.151 402.008C576.413 402.008 562.79 400.802 554.205 399.667V203.487ZM579.96 285.152H603.303C630.548 285.152 646.512 270.962 646.512 251.734C646.512 228.391 628.775 219.168 602.736 219.168C590.887 219.168 584.075 220.09 579.96 220.941V285.152ZM579.96 380.723C584.998 381.645 592.377 381.929 601.529 381.929C628.136 381.929 652.685 372.138 652.685 343.19C652.685 315.945 629.342 304.735 601.175 304.735H579.889V380.723H579.96Z" fill="#6246EA"/>
<path d="M19.3042 252.515L23.7741 248.045V242.298C21.3618 238.253 18.9494 233.784 16.4661 228.675C15.9695 229.526 15.4019 230.449 14.9052 231.371V245.916H10.4353V239.814C8.66154 243.504 6.95872 247.619 5.46875 252.018L6.03636 252.586H19.3042V252.515Z" fill="#6246EA"/>
<path d="M30.3742 252.515H30.5871C29.0261 250.528 27.4652 248.258 25.9043 245.845V248.045L30.3742 252.515Z" fill="#6246EA"/>
<path d="M107.142 249.109C105.794 250.244 104.446 251.379 103.098 252.515H103.736L107.142 249.109Z" fill="#6246EA"/>
<path d="M119.275 252.514V239.672C116.224 241.801 113.244 244.142 110.406 246.413V252.514H119.275Z" fill="#6246EA"/>
<path d="M130.414 252.515V232.861C127.363 234.422 124.383 236.196 121.545 238.111V252.515H130.414Z" fill="#6246EA"/>
<path d="M137.083 252.515H150.421L154.891 248.045V228.036L152.905 226.05C145.526 226.759 138.856 228.888 132.684 231.726V248.045L137.083 252.515ZM141.482 230.307H145.951V245.845H141.482V230.307Z" fill="#6246EA"/>
<path d="M165.961 252.515V226.192C163.052 225.837 160.072 225.695 157.092 225.766V252.444H165.961V252.515Z" fill="#6246EA"/>
<path d="M168.16 248.116L172.63 252.586H185.969L190.439 248.116V233.854C183.911 230.662 176.958 228.107 169.508 226.83L168.16 228.178V248.116ZM177.1 230.307H181.57V245.845H177.1V230.307Z" fill="#6246EA"/>
<path d="M201.508 252.515V240.169C198.67 238.324 195.69 236.551 192.639 234.919V252.515H201.508Z" fill="#6246EA"/>
<path d="M208.176 252.515H217.542C213.498 248.896 208.886 245.207 203.777 241.659V248.045L208.176 252.515Z" fill="#6246EA"/>
<path d="M10.365 290.473V261.596H2.63131C2.2056 263.37 1.85085 265.215 1.49609 267.059V290.473H10.365Z" fill="#6246EA"/>
<path d="M30.3731 290.473L34.8431 286.003V265.995L30.3731 261.525H17.0344L12.5645 265.995V286.003L17.0344 290.473H30.3731ZM21.5043 268.266H25.9742V283.804H21.5043V268.266Z" fill="#6246EA"/>
<path d="M37.043 286.003L41.5129 290.473H54.8517L59.3216 286.003V272.665C56.6254 272.239 53.6455 271.317 50.4527 269.827V283.804H45.9828V268.266H47.4018C45.0604 266.918 42.6481 265.144 40.1648 262.944L37.1139 265.995V286.003H37.043Z" fill="#6246EA"/>
<path d="M70.3884 290.473V272.523C67.5504 273.09 64.5704 273.232 61.5195 272.948V290.402H70.3884V290.473Z" fill="#6246EA"/>
<path d="M77.0591 290.473H90.3979L94.8678 286.003V265.995L91.1074 262.235C88.0565 264.505 85.0056 266.563 81.9547 268.195H85.9989V283.733H81.529V268.408C78.62 269.969 75.711 271.175 72.6602 271.955V286.003L77.0591 290.473Z" fill="#6246EA"/>
<path d="M114.875 290.473L119.345 286.003V265.995L114.875 261.525H101.536L97.0664 265.995V286.003L101.536 290.473H114.875ZM105.935 268.266H110.405V283.804H105.935V268.266Z" fill="#6246EA"/>
<path d="M130.343 261.596H121.475V290.473H130.343V261.596Z" fill="#6246EA"/>
<path d="M150.422 290.473L154.892 286.003V265.995L150.422 261.525H137.083L132.613 265.995V286.003L137.083 290.473H150.422ZM141.482 268.266H145.952V283.804H141.482V268.266Z" fill="#6246EA"/>
<path d="M165.961 261.596H157.092V290.473H165.961V261.596Z" fill="#6246EA"/>
<path d="M185.969 290.473L190.439 286.003V265.995L185.969 261.525H172.63L168.16 265.995V286.003L172.63 290.473H185.969ZM177.1 268.266H181.57V283.804H177.1V268.266Z" fill="#6246EA"/>
<path d="M210.375 290.473L214.845 286.003V265.995L210.375 261.525H197.036L192.566 265.995V286.003L197.036 290.473H210.375ZM201.506 268.266H205.976V283.804H201.506V268.266Z" fill="#6246EA"/>
<path d="M217.045 290.473H225.275C225.275 278.979 223.431 268.975 221.515 261.596H217.045V290.473Z" fill="#6246EA"/>
<path d="M23.7032 323.962V303.954L19.2333 299.484H5.96544L1.99219 303.457C3.62406 311.901 6.3202 320.273 9.93869 328.432H19.2333L23.7032 323.962ZM14.8343 321.692H10.3644V306.154H14.8343V321.692Z" fill="#6246EA"/>
<path d="M25.9746 303.954V323.962L30.4445 328.432H43.7833L48.2532 323.962V303.954L43.7833 299.484H30.3736L25.9746 303.954ZM34.8435 306.154H39.3134V321.692H34.8435V306.154Z" fill="#6246EA"/>
<path d="M59.2497 299.484H50.3809V328.361H59.2497V299.484Z" fill="#6246EA"/>
<path d="M79.2579 328.361L83.7278 323.891V303.883L79.2579 299.413H65.9191L61.4492 303.883V323.891L65.9191 328.361H79.2579ZM70.389 306.153H74.859V321.692H70.389V306.153Z" fill="#6246EA"/>
<path d="M103.736 328.361L108.206 323.891V303.883L103.736 299.413H90.3976L85.9277 303.883V323.891L90.3976 328.361H103.736ZM94.8675 306.153H99.3375V321.692H94.8675V306.153Z" fill="#6246EA"/>
<path d="M119.275 299.484H110.406V328.361H119.275V299.484Z" fill="#6246EA"/>
<path d="M130.343 299.484H121.475V328.361H130.343V299.484Z" fill="#6246EA"/>
<path d="M150.422 328.361L154.892 323.891V303.883L150.422 299.413H137.083L132.613 303.883V323.891L137.083 328.361H150.422ZM141.482 306.153H145.952V321.692H141.482V306.153Z" fill="#6246EA"/>
<path d="M165.961 299.484H157.092V328.361H165.961V299.484Z" fill="#6246EA"/>
<path d="M185.969 328.361L190.439 323.891V303.883L185.969 299.413H172.63L168.16 303.883V323.891L172.63 328.361H185.969ZM177.1 306.153H181.57V321.692H177.1V306.153Z" fill="#6246EA"/>
<path d="M201.508 299.484H192.639V328.361H201.508V299.484Z" fill="#6246EA"/>
<path d="M208.177 299.484L203.707 303.954V323.962L208.177 328.432H218.323C219.032 326.587 219.671 324.743 220.31 322.898C222.58 315.945 223.928 309.133 224.638 302.677L221.516 299.555H208.177V299.484ZM217.046 321.692H212.576V306.154H217.046V321.692Z" fill="#6246EA"/>
<path d="M34.8435 341.842L30.3736 337.372H17.0349L15.332 339.075C17.2477 342.481 19.3053 345.744 21.5048 349.008V344.041H25.9747V355.039C28.2451 357.948 30.6574 360.786 33.1407 363.482L34.8435 361.779V341.842Z" fill="#6246EA"/>
<path d="M41.5129 337.443L37.043 341.913V361.921L41.5129 366.391H54.8517L59.3216 361.921V341.913L54.8517 337.443H41.5129ZM50.3818 359.651H45.9118V344.112H50.3818V359.651Z" fill="#6246EA"/>
<path d="M70.3884 337.443H61.5195V366.32H70.3884V337.443Z" fill="#6246EA"/>
<path d="M77.0598 337.443L72.5898 341.913V361.921L77.0598 366.391H90.3985L94.8684 361.921V341.913L90.3985 337.443H77.0598ZM85.9286 359.651H81.4587V344.112H85.9286V359.651Z" fill="#6246EA"/>
<path d="M101.536 337.443L97.0664 341.913V361.921L101.536 366.391H114.875L119.345 361.921V341.913L114.875 337.443H101.536ZM110.405 359.651H105.935V344.112H110.405V359.651Z" fill="#6246EA"/>
<path d="M130.343 337.443H121.475V366.32H130.343V337.443Z" fill="#6246EA"/>
<path d="M150.422 366.32L154.892 361.85V341.842L150.422 337.372H137.083L132.613 341.842V361.85L137.083 366.32H150.422ZM141.482 344.112H145.952V359.651H141.482V344.112Z" fill="#6246EA"/>
<path d="M165.961 337.443H157.092V366.32H165.961V337.443Z" fill="#6246EA"/>
<path d="M185.969 366.32L190.439 361.85V341.842L185.969 337.372H172.63L168.16 341.842V361.85L172.63 366.32H185.969ZM177.1 344.112H181.57V359.651H177.1V344.112Z" fill="#6246EA"/>
<path d="M197.109 337.443L192.639 341.913V361.921L195.264 364.546C197.463 362.276 199.521 359.863 201.508 357.38V344.112H205.977V351.42C208.532 347.731 210.944 343.97 213.002 339.997L210.376 337.372H197.109V337.443Z" fill="#6246EA"/>
<path d="M50.3809 375.331V379.02C53.2189 381.149 56.1988 383.135 59.2497 384.909V375.26H50.3809V375.331Z" fill="#6246EA"/>
<path d="M79.2579 375.331H65.9191L61.4492 379.801V386.257C64.3582 387.889 67.2672 389.45 70.3181 390.798V382H74.788V392.714C77.697 393.849 80.6769 394.913 83.6569 395.836V379.801L79.2579 375.331Z" fill="#6246EA"/>
<path d="M108.206 379.801L103.736 375.331H90.3976L85.9277 379.801V396.545C92.9519 398.461 100.26 399.738 107.852 400.164L108.135 399.88V379.801H108.206ZM99.2665 397.609H94.7966V382.071H99.2665V397.609Z" fill="#6246EA"/>
<path d="M110.406 375.331V400.235C110.903 400.235 111.4 400.306 111.896 400.306C114.379 400.376 116.863 400.306 119.275 400.164V375.402H110.406V375.331Z" fill="#6246EA"/>
<path d="M121.475 375.331V399.951C124.455 399.738 127.434 399.383 130.343 398.886V375.26H121.475V375.331Z" fill="#6246EA"/>
<path d="M150.422 375.331H137.083L132.613 379.801V398.603C135.593 398.035 138.573 397.397 141.482 396.616V382.071H145.952V395.268C148.932 394.346 151.912 393.281 154.821 392.075V379.801L150.422 375.331Z" fill="#6246EA"/>
<path d="M157.092 375.331V391.153C160.143 389.876 163.052 388.386 165.961 386.825V375.331H157.092Z" fill="#6246EA"/>
<path d="M168.16 379.801V385.619C173.481 382.568 178.59 379.162 183.344 375.331H172.63L168.16 379.801Z" fill="#6246EA"/>
<path d="M165.109 0V83.4383H68.6868V0H42.9316V196.038C50.7362 189.581 59.3923 184.189 68.6868 179.932V112.812H62.9398C60.9532 112.812 59.3213 111.18 59.3213 109.194V108.484C59.3213 106.497 60.9532 104.866 62.9398 104.866H171.14C173.127 104.866 174.759 106.497 174.759 108.484V109.194C174.759 111.18 173.127 112.812 171.14 112.812H165.109V179.79C174.546 184.047 183.273 189.51 191.148 196.038V0H165.109Z" fill="white"/>
</svg>
